<svg width="18" height="19" viewBox="0 0 18 19" fill="none" xmlns="http://www.w3.org/2000/svg">
<path fill-rule="evenodd" clip-rule="evenodd" d="M9.79289 3.44133C10.1834 3.05081 10.8166 3.0508 11.2071 3.44133L16.4571 8.69128C16.6446 8.87881 16.75 9.13317 16.75 9.39838C16.75 9.6636 16.6446 9.91795 16.4571 10.1055L11.2071 15.3555C10.8166 15.746 10.1834 15.746 9.79289 15.3555C9.40237 14.965 9.40237 14.3318 9.79289 13.9413L13.3358 10.3984H2.25C1.69772 10.3984 1.25 9.95067 1.25 9.39839C1.25 8.8461 1.69772 8.39839 2.25 8.39839H13.3358L9.7929 4.85555C9.40237 4.46503 9.40237 3.83186 9.79289 3.44133Z" fill="#C21014"/>
</svg>
